<?xml version="1.0" encoding="utf-8"?>
<!-- Generator: Adobe Illustrator 27.2.0, SVG Export Plug-In . SVG Version: 6.00 Build 0)  -->
<svg version="1.1" id="Layer_1" xmlns="http://www.w3.org/2000/svg" xmlns:xlink="http://www.w3.org/1999/xlink" x="0px" y="0px"
	 viewBox="0 0 636 636" style="enable-background:new 0 0 636 636;" xml:space="preserve">
<style type="text/css">
	.st0{fill:#707E78;}
</style>
<g transform="translate(0.000000,636.000000) scale(0.100000,-0.100000)">
	<path class="st0" d="M2518,6352c-37-5-35-16,5-29c17-6,118-41,222-77c367-127,687-218,972-277c78-16,148-29,154-29c7,0-11,17-39,39
		c-38,28-70,42-115,50c-91,18-367,88-482,122c-55,17-107,32-115,34s-127,41-265,86C2615,6352,2578,6360,2518,6352z"/>
	<path class="st0" d="M2926,6351c7-7,276-96,319-106c5-1,17-4,25-7c26-9,130-39,148-43c9-1,44-10,77-19c32-8,61-14,63-12
		c5,6-66,45-132,73c-99,42-248,91-329,107C3013,6362,2910,6366,2926,6351z"/>
	<path class="st0" d="M2260,6260c-19-11-33-20-30-20c3-1,12-3,20-5c8-1,69-20,135-40c274-84,1160-333,1285-361c25-5,20-4,239-59
		c101-25,185-44,187-42s-13,19-34,39c-37,35-103,54-552,163c-29,7-306,84-435,120c-71,20-137,39-145,40c-18,5-235,68-461,136
		c-91,27-168,49-170,49C2297,6279,2279,6271,2260,6260z"/>
	<path class="st0" d="M2054,6127l-27-24l84-17c46-9,91-19,99-21c22-6,243-56,260-60c86-18,724-183,930-241c349-98,842-255,903-286
		c16-8,17-7,8,9c-40,68-67,80-426,194c-315,99-995,287-1175,324c-8,2-78,19-155,38c-156,39-393,93-442,102
		C2089,6149,2075,6144,2054,6127z"/>
	<path class="st0" d="M1871,5966c-23-24-23-26-5-27c10,0,28-2,39-4s72-11,135-20c108-15,318-48,385-61c223-41,503-102,665-145
		c63-17,122-32,130-34c350-86,934-307,1274-482l28-15l-17,29c-32,54-42,62-131,107c-280,139-708,297-1114,410
		c-192,54-600,149-735,171c-11,2-85,15-165,29s-163,27-185,31c-38,5-64,9-130,20c-16,3-57,8-90,11C1899,5992,1893,5990,1871,5966z"
		/>
	<path class="st0" d="M1718,5793c-28-31-22-38,35-39c68,0,304-13,353-19c22-2,89-9,149-15c94-9,388-51,450-64c11-3,66-14,123-25
		c640-129,1287-389,1788-721c41-27,74-47,74-45c0,3-10,25-22,50c-21,43-63,78-161,134c-195,113-271,154-382,207
		c-366,175-697,292-1095,388c-167,40-208,48-290,62c-14,3-36,7-50,9c-59,12-82,16-215,35c-163,23-197,28-285,35c-36,4-83,8-105,10
		c-22,3-110,8-195,11C1745,5812,1734,5811,1718,5793z"/>
	<path class="st0" d="M1957,5634c-1-1-83-4-182-7s-181-6-182-7c-4,0-33-59-33-65c0-3,3-4,8-1c23,14,500,23,672,12
		c87-6,199-16,230-21c14-3,50-7,80-10s96-13,145-21c50-8,101-17,115-19c42-7,241-53,325-75c565-149,1165-452,1630-823
		c38-31,71-55,72-53c9,9-42,98-70,121c-405,332-997,633-1557,794c-178,51-437,106-595,127c-33,4-62,9-65,9c-3,1-41,5-85,9
		c-44,5-93,10-110,12c-26,3-96,7-343,18C1983,5635,1959,5636,1957,5634z"/>
	<path class="st0" d="M1728,5485c-2-2-42-6-88-10c-124-8-138-13-156-47l-16-31l58,7c150,18,205,21,439,21c222,0,400-7,475-19
		c14-3,48-7,75-11c73-9,220-33,300-51c39-8,80-16,92-19c69-12,313-82,445-126c499-168,1038-457,1463-783c110-85,106-84,88-30
		c-19,57-58,89-328,268c-505,336-990,557-1530,696c-160,42-371,84-470,95c-33,4-62,9-65,10c-3,2-41,6-85,10s-93,9-110,12
		C2281,5483,1733,5490,1728,5485z"/>
	<path class="st0" d="M1727,5364c-1-1-40-4-87-8s-101-11-120-15c-19-5-47-12-61-15c-17-4-31-17-39-36c-7-17-11-32-9-34s36,4,75,14
		c91,23,176,33,287,32l88-1l-3,27c-3,26-6,27-66,32C1757,5363,1728,5365,1727,5364z"/>
	<path class="st0" d="M2337,5264c-1-1-66-4-143-8c-224-10-461-50-674-111c-167-49-184-57-197-99c-6-20-10-36-9-36s37,14,80,30
		c255,98,654,164,991,164c69,0,313-13,350-19c17-2,64-9,105-14c41-6,86-13,100-16s43-8,65-11c74-11,349-84,470-125
		c492-167,972-445,1420-822c55-47,101-84,102-83c2,2-4,24-13,50c-14,41-31,60-121,135c-328,271-760,533-1133,686
		c-232,95-617,207-790,229c-25,3-54,8-66,10s-43,7-70,10c-27,4-65,9-84,11c-19,3-93,7-165,11c-71,3-149,7-173,8
		C2359,5265,2339,5265,2337,5264z"/>
	<path class="st0" d="M2548,5056c-1-2-43-6-93-10c-49-3-117-10-150-16c-33-5-80-13-105-16c-198-27-590-161-749-256
		c-41-25-42-25-23-47l18-23l124,60c346,167,705,246,1110,246c148,0,279-7,350-19c24-4,62-9,140-21c19-3,96-20,170-39
		c470-118,910-345,1343-692c133-107,168-138,301-265c45-42,83-75,84-73c2,2-3,26-12,53c-14,41-33,65-103,129c-47,43-91,83-97,88
		c-6,6-58,49-116,96c-450,366-933,614-1420,728c-69,16-145,32-170,36s-52,9-61,10c-9,2-38,6-65,9s-69,8-94,12
		C2881,5052,2554,5060,2548,5056z"/>
	<path class="st0" d="M1670,5035c-141-31-258-80-359-152c-49-35-56-44-72-100c-10-35-15-63-13-63c3,0,19,16,36,36
		c94,107,286,200,478,230c44,7,44,8,36,39C1769,5054,1762,5054,1670,5035z"/>
	<path class="st0" d="M2827,4865c-1-2-45-5-97-9c-52-3-108-8-125-11c-165-27-209-37-342-76c-135-39-304-108-433-175
		c-113-60-300-180-300-193c0-4,8-15,19-25c17-16,23-13,117,50c235,158,634,315,884,349c25,3,52,8,60,10c69,18,364,25,510,12
		c504-45,1026-276,1505-666c44-35,82-67,85-70s25-23,50-45c55-47,238-225,301-292c77-83,79-83,61-18c-14,50-27,67-131,171
		c-174,174-381,349-551,469c-419,294-857,465-1305,510C3070,4862,2833,4869,2827,4865z"/>
	<path class="st0" d="M1347,4651c-45-50-82-114-106-184c-11-31-18-57-16-57s0-14-5-30c-8-28-6-32,17-41c14-5,28-8,30-5
		c3,2,11,34,19,69c15,64,75,178,115,218c15,15,17,24,9,39C1393,4692,1383,4691,1347,4651z"/>
	<path class="st0" d="M1660,4683c-8-3-43-19-78-36c-118-58-226-177-274-302c-18-48-19-58-7-66c31-20,46-9,67,49
		c41,111,141,216,262,274c36,18,66,33,68,34C1709,4643,1673,4686,1660,4683z"/>
	<path class="st0" d="M3047,4684c-1-1-44-4-95-8c-270-19-573-115-847-268c-154-86-338-217-433-308l-33-32l21-20c23-22,22-22,90,38
		c262,236,718,459,1035,509c160,25,250,32,372,29c526-11,1049-246,1543-694c136-123,329-324,444-463c22-26,41-45,43-43
		c6,6-19,100-33,119c-19,28-160,182-249,271c-519,521-1064,812-1610,861C3227,4682,3052,4688,3047,4684z"/>
	<path class="st0" d="M3077,4494c-1-1-38-5-82-8c-44-4-131-19-194-32c-496-110-925-415-1213-860c-110-171-235-483-272-679
		c-9-47-16-87-22-125c-3-19-7-46-9-60c-26-162-25-530,1-713c10-73,47-157,68-157c19,0,19,0,2,100c-22,125-30,237-30,420
		c0,146,10,335,19,350c1,3,6,27,9,54c34,248,157,573,303,801c108,167,296,367,458,487c252,187,558,313,859,352c102,13,349,14,441,1
		c477-64,961-308,1305-655c120-121,193-212,382-477c84-117,153-211,155-209c2,1-2,29-8,60c-9,50-26,79-126,219
		c-278,390-473,587-763,770c-93,59-296,163-412,211c-85,35-297,101-361,111c-44,8-98,17-122,21C3399,4488,3087,4503,3077,4494z"/>
	<path class="st0" d="M3130,4339c-116-8-181-17-257-34c-13-3-32-7-42-9c-414-92-822-387-1074-776c-163-252-281-582-312-870
		c-4-36-9-78-11-95c-5-39-5-346,1-405c8-92,16-156,25-210c6-30,13-68,15-85c13-73,60-247,92-338c97-280,239-531,427-753
		c55-65,245-257,317-320c180-157,443-321,462-288c5,9,7,17,5,18c-1,2-46,31-98,66c-447,296-771,652-961,1055
		c-64,138-114,274-150,412c-25,100-36,153-64,323c-21,126-24,437-5,577c6,48,14,102,16,118c2,17,6,41,9,55s7,34,9,45
		c10,53,40,153,72,247c189,543,605,961,1126,1132c93,31,164,46,323,71c50,8,251,8,330,0c443-44,916-276,1256-615
		c139-139,194-206,384-470c167-231,255-346,256-334c7,60-6,91-70,178c-38,50-117,159-176,241c-139,191-209,278-315,389
		c-305,317-741,561-1148,641c-119,23-130,24-232,31c-52,3-99,7-105,8C3230,4345,3182,4343,3130,4339z"/>
	<path class="st0" d="M1437,4266c-73-111-130-243-141-332c-5-40-4-42,23-46s29-2,39,56c13,65,69,191,126,280c20,31,36,59,36,63
		c0,7-32,32-41,33C1476,4320,1457,4296,1437,4266z"/>
	<path class="st0" d="M1209,4144c-1-171-14-440-24-514c-2-14-6-54-10-90c-9-91-16-150-34-285c-6-38-13-92-16-120c-4-27-15-95-25-150
		c-17-92-20-216-6-270c2-11,5-31,5-44c1-34,8-23,15,24c3,22,13,76,21,120s17,100,20,125s12,83,20,130c7,47,16,108,20,135
		c3,28,8,67,11,87c7,55,12,97,19,158c4,30,8,69,10,85c2,17,7,68,10,115c4,47,9,101,11,120c3,19,7,128,9,243c4,173,2,207-9,207
		c-8,0-21,3-30,6C1212,4231,1210,4220,1209,4144z"/>
	<path class="st0" d="M1530,4143c-52-71-144-248-178-343c-11-31-31-97-45-148l-26-93l26-10c14-5,27-8,29-6s17,51,34,109
		c48,174,134,353,226,473c34,45,35,48,18,66c-9,10-21,19-26,19C1584,4210,1558,4180,1530,4143z"/>
	<path class="st0" d="M3089,4186c-2-2-22-6-44-10c-240-34-489-134-684-273c-88-64-245-208-321-297c-174-202-359-592-404-851
		c-3-16-8-41-11-55c-23-114-30-213-30-400c0-184,7-267,36-420c121-640,456-1141,1054-1577c185-135,438-279,505-288
		c132-17,133-19-26,64c-577,300-1002,693-1249,1154c-104,194-204,488-230,672c-3,22-8,50-10,61c-3,12-7,50-11,85c-3,35-7,75-10,89
		c-2,14-4,84-4,155c-1,145,12,287,35,405c3,14,7,34,9,45c19,99,79,278,132,395c170,376,441,665,781,834c218,108,402,150,658,150
		c136,0,203-7,325-34c507-113,975-448,1312-939c52-77,181-251,217-293c103-122,165-193,171-196c4-2,5,16,3,40c-4,35-18,58-72,123
		c-64,75-147,186-321,425c-239,328-500,556-830,724c-184,94-398,168-546,190c-22,4-51,9-64,12C3432,4183,3095,4191,3089,4186z"/>
	<path class="st0" d="M3188,4035c-2-1-32-5-68-9c-399-38-803-301-1052-686c-126-196-233-457-273-671c-3-13-7-35-10-49
		c-29-148-39-402-22-575c37-376,198-782,438-1100c259-345,650-660,1107-894c95-48,106-52,164-49l62,3l-119,58
		c-870,423-1406,1034-1560,1780c-34,167-44,276-40,452c4,156,6,174,30,315c42,250,160,531,315,752c92,132,272,309,396,391
		c170,113,343,182,529,211c97,15,287,18,357,6c24-4,61-11,83-14c74-10,100-17,205-52c137-45,338-144,471-232
		c244-161,428-349,649-662c84-119,165-224,223-290c109-124,202-220,212-220c6,0,10,12,9,28c-2,38-1,36-31,68
		c-119,128-217,243-281,332c-200,273-255,344-334,432c-75,84-110,118-248,240c-56,50-247,174-351,229c-251,133-493,199-750,205
		C3239,4036,3189,4036,3188,4035z"/>
	<path class="st0" d="M1554,3903c-26-43-54-88-61-99c-12-19-11-23,12-38l25-17l43,68c84,131,84,131,62,148c-11,8-23,15-26,15
		C1605,3980,1581,3945,1554,3903z"/>
	<path class="st0" d="M3185,3880c-11-4-23-6-27-4c-3,2-39-3-78-11c-539-113-969-592-1114-1238c-35-154-41-220-41-427
		c1-186,4-218,41-416c8-46,66-228,95-301c41-105,146-305,209-400c165-246,400-483,690-695c227-164,604-373,667-369c34,2,88,19,65,20
		c-23,2-313,150-441,226c-178,106-352,232-510,370c-187,163-377,392-499,605c-93,162-192,412-217,549c-3,14-9,51-15,81
		c-5,30-12,69-16,85c-10,52-13,397-3,475c35,280,145,577,300,810c77,115,262,304,370,377c207,141,413,207,649,206
		c144,0,193-6,302-33c341-88,696-316,949-611c30-35,61-71,70-81c8-10,55-73,104-140c134-187,172-236,249-323c87-98,288-296,295-289
		c3,3,7,17,9,31c3,22-13,42-97,124c-140,138-239,253-350,409c-192,271-339,433-522,580c-252,202-570,349-834,385
		C3412,3886,3208,3889,3185,3880z"/>
	<path class="st0" d="M3338,3735c-2-1-39-5-83-8c-108-8-136-14-237-48c-347-115-622-400-797-825c-96-232-136-435-136-684
		c0-148,8-229,36-364c92-449,382-898,799-1236c30-25,57-47,60-50c13-14,164-123,245-177c179-119,497-293,538-293c8,0,28,5,43,10
		c26,10,19,15-127,88c-329,166-572,328-818,547c-70,63-222,223-284,300c-201,249-349,560-406,850c-62,320-33,641,86,940
		c191,481,508,788,899,870c93,20,271,22,364,6c182-33,395-122,569-239c124-84,175-126,291-242c138-137,152-155,406-501
		c34-46,101-126,149-177c87-92,323-307,330-300c2,2,6,15,9,30c4,23-5,36-67,90c-98,86-253,240-314,313c-27,33-92,118-142,189
		c-108,151-191,254-281,350c-290,308-685,524-1006,551c-38,4-81,8-96,10S3340,3737,3338,3735z"/>
	<path class="st0" d="M1410,3618c-13-40-29-92-36-114c-12-40-11-42,11-52c18-8,26-8,32,1c8,14,73,210,70,213c-7,5-46,24-50,24
		C1434,3690,1422,3657,1410,3618z"/>
	<path class="st0" d="M3305,3579c-221-18-422-116-595-289c-233-233-419-629-458-975c-9-78-8-326,1-390c69-480,328-910,777-1291
		c225-190,486-362,759-498c91-46,94-47,129-33l36,15l-112,56c-658,328-1126,751-1367,1235c-48,96-101,228-110,274c-2,9-6,21-9,25
		c-3,5-7,20-10,35c-2,15-12,64-22,109c-26,124-25,402,1,543c44,228,171,526,299,700c342,464,845,557,1344,247
		c250-155,436-343,677-681c140-197,274-334,494-510c92-73,106-81,112-65c14,35,9,42-58,95c-226,176-374,329-513,529
		c-281,403-575,661-907,794C3609,3569,3469,3592,3305,3579z"/>
	<path class="st0" d="M3296,3423c-165-28-317-111-452-247c-132-133-232-293-319-511c-256-639-99-1264,454-1815
		c244-243,517-442,879-640c125-68,134-71,162-60c17,7,30,15,30,19c0,3-39,26-88,50c-331,169-681,416-927,658
		c-483,473-663,1001-526,1542c71,278,209,541,374,710c295,302,694,327,1077,66c208-142,401-343,604-632c99-142,115-161,216-263
		c132-133,448-374,451-343c0,4,2,18,5,29c2,16-5,27-24,39c-96,62-302,227-382,307c-115,115-118,118-204,243
		C4195,3201,3730,3498,3296,3423z"/>
	<path class="st0" d="M1295,3279c-19-30-91-324-119-484c-40-225-44-293-21-390l19-80l7,45c4,25,9,78,13,118c19,212,78,512,145,741
		c6,19,8,37,6,41C1337,3282,1300,3289,1295,3279z"/>
	<path class="st0" d="M3320,3274c-208-57-396-219-580-500c-99-152-164-289-199-425c-28-107-30-124-27-269c5-199,32-310,121-495
		c138-287,403-586,785-886c131-102,429-300,594-394c127-72,139-77,161-65c33,18,31,26-7,46c-235,119-578,346-803,530
		c-552,450-820,902-793,1335c13,219,89,406,268,662c79,112,245,280,322,326c234,137,435,122,692-52c66-44,251-224,333-322
		c27-33,107-135,176-226c173-227,298-351,522-520c100-76,305-212,311-207c3,3,7,16,9,29c3,20-5,30-48,58c-176,114-407,293-507,392
		c-74,73-156,168-221,255c-37,51-74,100-82,110c-9,11-46,57-83,104c-159,201-360,379-507,453C3614,3284,3444,3308,3320,3274z"/>
	<path class="st0" d="M3443,3108c-121-18-231-83-353-208c-196-200-347-474-381-691c-11-71-8-245,6-319c22-121,113-324,207-464
		c237-352,711-744,1275-1054c92-50,93-50,115-32c13,10,21,20,18,23c-3,2-63,37-134,76c-659,368-1148,813-1340,1223
		c-71,150-95,254-96,413c-1,83,1,95,26,205c37,160,196,424,351,582c349,357,706,227,1164-424c168-239,317-380,594-565
		c179-119,266-167,276-152c17,27,8,44-34,68c-75,42-350,227-417,280c-129,103-256,239-365,393C3997,2963,3730,3153,3443,3108z"/>
	<path class="st0" d="M3485,2926c-81-20-164-70-240-143c-137-131-293-388-334-553c-23-89-26-256-6-345c82-380,426-774,1020-1170
		c165-110,461-285,482-285c14,0,46,37,36,43c-4,2-39,21-78,42c-133,71-370,216-489,299c-607,425-926,845-928,1220
		c0,166,38,277,164,480c116,187,245,309,370,348c233,72,463-86,749-515c98-147,134-193,214-272c140-137,314-260,584-410
		c82-45,105-55,112-44c19,30,7,45-74,88c-128,69-309,184-414,262c-145,109-247,220-359,387c-196,293-348,452-504,529
		C3691,2936,3580,2950,3485,2926z"/>
	<path class="st0" d="M3577,2759c-137-31-276-167-397-389c-83-154-105-234-103-377c7-394,430-864,1178-1310c83-49,176-102,207-118
		l58-30l21,21l21,21l-94,50c-493,264-947,621-1151,905c-123,172-181,326-181,478c1,112,17,172,77,291c120,234,262,379,398,403
		c162,29,355-129,553-454c107-174,183-263,321-372s269-190,481-299c124-63,139-68,145-52c4,10,8,23,8,29c1,6-55,39-124,74
		c-402,202-606,369-765,625c-141,226-250,356-363,434C3779,2749,3662,2777,3577,2759z"/>
	<path class="st0" d="M3655,2589c-75-17-130-56-199-141c-72-88-174-287-191-373c-17-87-4-194,36-302c114-305,537-685,1149-1032
		c136-77,171-93,186-80c25,21,15,38-38,65c-166,84-445,258-628,393c-306,224-520,452-604,643c-44,100-60,212-41,302
		c14,68,84,211,156,317c101,149,216,190,334,118c93-56,169-149,275-334c89-154,115-190,195-270c99-99,219-188,375-279
		c106-61,408-202,415-194c1,2,6,13,9,26c6,19,2,25-31,38c-184,76-450,224-583,323c-74,55-230,206-230,221c0,5-6,15-14,23
		c-8,7-38,56-66,108C3984,2478,3811,2625,3655,2589z"/>
	<path class="st0" d="M3685,2417c-54-25-112-95-158-190c-81-166-104-274-83-377c12-62,86-197,148-272c198-239,589-529,1046-774
		l74-39l19,23l19,24l-53,27c-180,92-474,277-662,417c-366,270-550,505-540,689c5,85,74,254,142,348c77,106,157,102,252-12
		c43-52,111-162,160-262c84-168,235-315,461-449c91-54,298-155,413-201c91-37,110-41,118-29c18,29,2,42-116,91
		c-353,146-625,324-752,494c-16,22-59,96-96,165c-118,222-218,329-315,337C3736,2429,3702,2424,3685,2417z"/>
	<path class="st0" d="M3751,2269c-13-5-35-22-48-37c-44-51-105-287-97-373c21-210,421-548,1084-913l104-58l18,22c10,13,17,24,16,25
		c-2,2-65,37-140,79c-375,207-675,414-854,591c-156,154-186,220-159,353c36,177,69,252,110,252c38,0,99-86,175-250
		c55-119,97-179,184-265c120-119,267-215,478-314c118-55,339-141,362-141c14,0,33,37,23,46c-3,3-41,18-84,34
		c-359,128-657,306-796,475c-51,62-62,80-149,258C3895,2223,3818,2296,3751,2269z"/>
	<path class="st0" d="M3745,2107c-10-16-16-47-16-84c0-91,24-230,48-276c58-114,382-339,907-631c172-95,191-103,203-88
		c7,9,12,22,13,27c0,6-78,53-172,105c-274,151-305,170-478,279c-185,116-305,204-370,270c-64,65-78,107-87,261c-5,88-4,93,11,74
		c15-21,76-147,76-157c0-3,14-35,30-71c118-254,419-462,911-631l127-43l11,24c6,14,11,27,11,29s-37,15-82,30
		c-207,67-470,186-603,274c-183,121-276,230-355,417c-29,69-67,144-84,167C3807,2135,3769,2143,3745,2107z"/>
</g>
</svg>
