<?xml version="1.0" encoding="UTF-8"?>
<svg id="Layer_2" data-name="Layer 2" xmlns="http://www.w3.org/2000/svg" viewBox="0 0 174.28 263">
  <defs>
    <style>
      .cls-1 {
        fill: #fdf4ed;
      }
    </style>
  </defs>
  <g id="Layer_1-2" data-name="Layer 1">
    <g>
      <path class="cls-1" d="m113.13,16.9l2.64.48-2.18-1.69c-.59-.45-1.18-.9-1.77-1.33l-.14-.1-.16-.03C97.99,11.63,81.52,6.86,62.56.06l-.16-.06-.17.02c-.63.08-1.26.19-1.88.31l-2.37.46,2.37.86c20.66,7.5,38.42,12.63,52.78,15.25Z"/>
      <path class="cls-1" d="m122.88,25.55l2.13.5-1.54-1.62c-.4-.42-.82-.83-1.25-1.24l-.15-.15-.2-.05c-18.88-4.49-42.77-11.06-71-19.53l-.25-.07-.22.1c-.41.19-.82.38-1.24.59l-1.52.76,1.72.52c29.47,8.86,54.2,15.65,73.52,20.2Z"/>
      <path class="cls-1" d="m131.85,35.81l2.09.75-1.38-1.78c-.21-.26-.41-.52-.62-.78l-.27-.34-.02-.27-.47-.16c-16.33-5.77-45.07-14.69-89.28-24.45l-.3-.07-.23.17c-.32.23-.64.47-.96.72l-1.15.89,1.51.33c45.33,9.98,74.55,19.1,91.08,25Z"/>
      <path class="cls-1" d="m140.11,47.7l2.14,1.1-1.29-2.03c-.31-.49-.62-.98-.94-1.46l-.11-.18-.19-.09c-19.66-9.9-53.9-23.1-105.43-29.76l-.32-.04-.22.21c-.28.27-.55.54-.82.83l-.94.99,1.43.18c52.48,6.69,86.98,20.15,106.69,30.25Z"/>
      <path class="cls-1" d="m126.23,48.32h0c7.47,3.69,14.58,7.81,21.13,12.23l2.09,1.41-1.12-2.23c-.22-.44-.45-.88-.68-1.31l-.1-.19-.02-.22-.31-.2c-6.24-4.13-12.99-7.99-20.06-11.49-20.3-10.05-54.05-22.31-99.59-23.64h-.33s-.19.23-.19.23c-.23.29-.47.58-.71.88l-.91,1.11,1.5.04c45.44,1.19,79.08,13.38,99.3,23.4Z"/>
      <path class="cls-1" d="m31.5,43.77l.69.06v-2.29s-.69-.06-.69-.06c-6.82-.57-12.74.5-16.5,1.5l-.28.08-.12.26c-.16.36-.32.73-.49,1.11l-.59,1.4,1.47-.42c3.75-1.07,9.67-2.23,16.51-1.65Z"/>
      <path class="cls-1" d="m126.99,55.82c9.43,5.25,18.36,11.28,26.52,17.9l1.99,1.62-.95-2.34c-.24-.59-.49-1.16-.75-1.73l-.08-.17-.15-.12c-7.93-6.32-16.53-12.08-25.57-17.11-22.56-12.57-59.34-26.79-106.44-23.12l-.32.02-.16.26c-.19.31-.39.63-.58.94l.57.43h0s-.6-.39-.6-.39l-.73,1.2,1.44-.12c46.83-3.84,83.37,10.24,105.79,22.72Z"/>
      <path class="cls-1" d="m55.82,39.37c24.48,2.7,61.9,12.32,101.13,42.8l1.83,1.42-.79-2.13c-.14-.38-.29-.77-.44-1.16l-.13-.33-.02-.23-.27-.21c-39.33-30.19-76.79-39.74-101.3-42.44-16.31-1.79-29.65-.92-37.98.12l-.33.04-1.3,2.5,1.4-.18c8.37-1.09,21.78-2.01,38.18-.2Z"/>
      <path class="cls-1" d="m11.25,127.9l-2.19-.89-.22.62c-.04.12-4.57,13.59-6.46,32.06v.11s.01.11.01.11c.2.96.43,1.92.66,2.88l1,4.16.35-4.15c1.68-19.67,6.56-34.09,6.61-34.25l.23-.64Z"/>
      <path class="cls-1" d="m7.67,89.16l-.02-.69-2.3-.14.02.69c.4,14.41-1.25,31.9-5.35,56.72v.1s0,.1,0,.1c.13,1.06.28,2.1.43,3.14l.65,4.35.71-4.22c4.46-26.46,6.27-44.99,5.86-60.06Z"/>
      <polygon class="cls-1" points="13.94 120.64 16.89 111.36 14.68 110.51 11.74 119.78 13.94 120.64"/>
      <path class="cls-1" d="m8.03,83.1c.87-7.1,5.63-11.69,5.67-11.73l.5-.45-1.66-1.72-.48.43c-.05.05-5.33,5.03-6.31,12.99l-.08.67,2.28.48.08-.68Z"/>
      <path class="cls-1" d="m8.93,101.99l2.31.27.02-.68c.22-6.22,6.44-14.91,6.72-15.29l.38-.53-1.89-1.44-.39.53c-.28.38-6.87,9.35-7.12,16.45l-.02.68Z"/>
      <path class="cls-1" d="m22.38,91.02l.49-.47-1.75-1.68-.46.49c-.82.88-8.14,9.08-12.03,25.88l-.15.66,2.25.69.15-.65c3.93-16.99,11.44-24.84,11.51-24.9Z"/>
      <polygon class="cls-1" points="23.71 99.72 21.72 98.4 16.7 106.56 18.69 107.88 23.71 99.72"/>
      <path class="cls-1" d="m24.98,71.6l.64-.2-.86-2.2-.64.2c-.49.15-11.98,3.92-15.16,15.79l-.17.65,2.22.76.17-.64c2.9-10.8,13.36-14.22,13.8-14.36Z"/>
      <path class="cls-1" d="m28.39,56.58l.68-.1-.54-2.27-.67.1c-10.87,1.57-17.07,5.5-20.35,8.51l-.22.21.02.19-1.37,4.76,2.03-2.2c2.49-2.7,8.46-7.48,20.42-9.21Z"/>
      <path class="cls-1" d="m59.05,47.85c24.42.95,61.8,9.27,101.21,43.57l1.85,1.61-.77-2.27c-.18-.52-.35-1.05-.54-1.57l-.02-.22-.24-.2c-39.62-34.01-77.15-42.27-101.65-43.2-25.12-.98-43.01,5.23-47.89,7.16l-.25.1-.1.25c-.12.32-.24.64-.35.97l-.63,1.78,1.51-.63c3.37-1.4,21.52-8.35,47.86-7.33Z"/>
      <path class="cls-1" d="m61.96,54.02c-27.89,1.06-46.7,12.37-47.49,12.86l-.57.35,1.36,1.96.56-.34c.77-.47,19.16-11.52,46.48-12.54,24.22-.92,61.41,6.06,100.96,44.46l1.82,1.77-.7-2.38c-.17-.58-.35-1.15-.53-1.73l-.06-.19-.14-.14c-39.8-38.1-77.26-45-101.68-44.09Z"/>
      <path class="cls-1" d="m113.62,69.38c-15.98-6.48-32.33-8.8-48.61-6.88-27.65,3.28-45.74,17.95-45.91,18.1l-.49.42,1.53,1.81.51-.42c.18-.14,17.94-14.45,44.83-17.62,23.97-2.84,60.84,2.74,100.41,45.41l1.83,1.97-.68-2.54c-.17-.62-.33-1.23-.5-1.83l-.05-.18-.13-.14c-16.86-17.92-34.6-30.74-52.75-38.1Z"/>
      <path class="cls-1" d="m91.35,69.68c-39.52-3.59-67.29,24.33-67.57,24.61l-.46.48,1.73,1.65.46-.46c.27-.28,27.41-27.49,65.84-23.99,26.52,2.42,52.4,18.45,76.9,47.66l1.86,2.21-.67-2.73c-.15-.61-.29-1.22-.44-1.83l-.02-.19-.16-.18c-24.62-28.89-50.68-44.77-77.46-47.22Z"/>
      <path class="cls-1" d="m25.19,112.7c19.05-27.33,57.46-45.25,100.33-23.7,22.3,11.2,31.64,24.5,42.44,39.91,1.03,1.46,2.07,2.94,3.14,4.44l1.75,2.45-.52-2.88c-.12-.69-.25-1.37-.37-2l-.02-.2-.12-.17c-.68-.96-1.35-1.91-2.01-2.87-11.02-15.68-20.53-29.22-43.4-40.71-44.1-22.17-83.59-3.76-103.16,24.31-17.88,25.65-16.6,55.15-14.25,70.45l.04.14c.55,1.47,1.11,2.93,1.69,4.36l1.31-.28c-5.26-27.02-.47-53.72,13.14-73.26Z"/>
      <path class="cls-1" d="m118.78,186.1c-4.05-10.43-5.97-11.52-7.43-11.16-3.73.89-.28,14.49-.24,14.62,1.92,7.36,32.33,24.24,45.31,31.15l.59.32,1.08-1.94-.67-.36c-20.43-10.91-42.74-24.4-44.09-29.56-1.51-5.81-1.56-10.36-1.24-11.73.58.65,2.01,2.75,4.55,9.3,6.06,15.6,29.4,24.67,42.78,28.69l.52.16.24-.45c.15-.29.29-.57.44-.87l.37-.75-.84-.26c-13.05-3.96-35.77-12.76-41.36-27.18Z"/>
      <path class="cls-1" d="m121.88,182.42c-4.1-9.46-7.33-13.61-10.44-13.41-3.18.15-5.31,4.78-6.88,15.03-2.12,13.75,36.72,35.53,48.68,41.88l.54.29.32-.46c.18-.26.34-.52.5-.78l.38-.62-.7-.37c-23.91-12.76-48.93-29.81-47.45-39.38,1.83-11.87,4.05-13.25,4.97-13.29.66,0,3.21.86,7.98,11.87,4.79,11.14,18.73,20.74,41.44,28.52l.58.2.23-.52c.06-.13.12-.26.18-.39.07-.14.13-.28.19-.42l.31-.71-.78-.26c-21.77-7.43-35.62-16.82-40.05-27.15Z"/>
      <path class="cls-1" d="m124.99,178.75c-5.18-10.84-9.95-16.14-14.65-16.19-4.66,0-8.67,5.32-12.25,16.27-6.49,19.83,37.92,44.95,51.68,52.17l.53.28,1.32-1.81-.75-.4c-9.5-5.02-56.6-30.98-50.58-49.36,3.18-9.72,6.73-14.85,10.3-14.85,3.5.04,7.76,5.14,12.34,14.74,5.08,10.64,18.15,19.89,39.94,28.29l.57.22.25-.51c.14-.28.26-.58.37-.87l.25-.66-.7-.27c-21.21-8.17-33.85-17.02-38.62-27.04Z"/>
      <path class="cls-1" d="m128.08,175.09c-6.66-12.65-13.2-19.16-19.46-19.34-6.21-.14-11.92,5.87-17.02,17.95-5.09,12.05,3.07,26.81,23.6,42.68,12.78,9.88,26.8,17.43,30.79,19.51l.49.26.33-.4c.19-.23.39-.46.58-.71l.51-.65-.79-.41c-10.73-5.6-63.72-34.77-53.38-59.25,4.74-11.22,9.79-16.84,15.02-16.7,5.29.16,11.11,6.2,17.31,17.97,7.04,13.38,25.25,22.41,38.34,28.03l.64.28.34-.89c.07-.19.15-.38.21-.56l.22-.62-.64-.28c-12.73-5.47-30.42-14.22-37.09-26.87Z"/>
      <path class="cls-1" d="m131.19,171.41c-8.71-15.04-16.81-22.47-24.76-22.71-7.69-.23-14.83,6.47-21.32,19.9-3.25,6.71-3.41,13.97-.47,21.58,9.47,24.61,49.33,46.31,57.23,50.41l.46.24.33-.35c.2-.21.4-.43.63-.68l.59-.65-.85-.44c-7.78-4.03-47.07-25.32-56.26-49.19-2.69-6.99-2.55-13.65.42-19.8,6.01-12.44,12.43-18.74,19.1-18.74.09,0,.18,0,.26,0,7.01.21,14.42,7.22,22.66,21.43,7.22,12.47,23.36,21.35,36.61,27.69l.66.31.24-.64c.11-.28.21-.57.3-.86l.2-.59-.6-.29c-12.91-6.19-28.61-14.82-35.44-26.64Z"/>
      <path class="cls-1" d="m134.28,167.74c-7.66-12.06-18.03-25.93-30.36-26.23h-.37c-8.89,0-17.28,7.4-24.94,22-4.46,8.51-4.96,17.6-1.47,27.03,10.16,27.46,51.93,50.26,60.19,54.55l.43.22.33-.31c.23-.21.46-.43.7-.65l.68-.65-.91-.47c-8.16-4.2-49.35-26.49-59.28-53.32-3.25-8.78-2.78-17.26,1.39-25.2,7.38-14.08,15.25-21.15,23.41-20.91,11.13.27,20.96,13.52,28.29,25.03,7.43,11.71,21.74,20.35,34.76,27.26l.7.37.24-.71c.1-.3.19-.59.27-.89l.15-.55-.53-.28c-12.68-6.76-26.59-15.17-33.68-26.31Z"/>
      <path class="cls-1" d="m137.37,164.05l-.19-.26c-7.65-10.99-20.46-29.38-36.02-29.56h-.21c-10.24,0-19.94,8.15-28.84,24.21-5.75,10.34-6.63,21.27-2.59,32.51,10.44,29.11,50.73,52.06,62.83,58.4l.4.21.41-.32c.24-.19.47-.37.7-.56l.76-.65-.95-.5c-8.51-4.43-51.5-27.98-61.98-57.19-3.8-10.59-2.97-20.91,2.47-30.68,8.57-15.48,17.73-23.29,27.19-23.16,14.31.17,26.64,17.89,34,28.48l.18.26c7.75,11.14,21.61,20.13,32.81,26.73l.75.44.62-2.19-.5-.3c-10.91-6.43-24.38-15.18-31.83-25.89Z"/>
      <path class="cls-1" d="m140.47,160.4c-.39-.51-.79-1.05-1.21-1.61l-1.01-1.34c-8.5-11.39-22.74-30.46-39.9-30.5-11.58,0-22.6,8.89-32.74,26.43-7.07,12.24-8.32,25.07-3.72,38.12,10.93,31.07,52.45,55.17,64.91,61.82l.37.2,2.1-1.4-1.06-.56c-12.34-6.51-53.43-30.14-64.16-60.64-4.37-12.41-3.17-24.61,3.57-36.27,9.75-16.86,20.15-25.41,30.97-25.41,15.88.04,29.63,18.46,37.85,29.47.79,1.06,1.54,2.07,2.24,2.98,8.12,10.66,20.69,19.51,30.74,26.03l.79.51.22-.85c.08-.3.15-.61.22-.92l.1-.48-.44-.28c-9.76-6.35-21.97-14.96-29.84-25.28Z"/>
      <path class="cls-1" d="m147.64,158.11c-20.4-30.52-38.63-37.04-50.32-37.13-13.84-.06-25.97,8.58-34.13,24.44-9.65,18.76-10.92,37.16-3.76,54.71,12.37,30.32,46.71,49.9,60.89,56.91l.31.15.29-.14c.35-.16.69-.34,1.02-.52l1.14-.61-1.25-.61c-10.98-5.35-47.76-25.19-60.29-55.89-6.89-16.88-5.65-34.66,3.7-52.83,7.74-15.04,19.11-23.33,32.02-23.33h.23c11.1.08,28.48,6.39,48.27,35.99,6.07,9.08,16.91,17.29,24.95,22.58l.83.55.21-1.01c.06-.29.12-.57.17-.85l.09-.47-.42-.28c-7.73-5.12-18.16-13.03-23.95-21.67Z"/>
      <path class="cls-1" d="m150.43,153.23c-8.4-12.44-16.53-21.23-25.61-27.69-12.24-8.7-24.78-12.18-36.28-10.06-12.51,2.32-23.54,11.22-31.05,25.07-16.64,30.63-8.05,56.26,2.09,72.37,15.71,25.17,44.5,40.7,56.15,46.21l.28.13.27-.11c.38-.15.74-.3,1.12-.47l1.33-.59-1.41-.66c-11.59-5.39-40.22-20.61-55.82-45.6-9.8-15.57-18.1-40.36-1.97-70.06,7.22-13.3,17.74-21.84,29.61-24.03,10.85-2.01,22.77,1.32,34.45,9.63,8.81,6.26,16.74,14.84,24.97,27.01,4.74,7.02,12.49,14.55,23.01,22.37l.86.64.2-.99c.07-.33.12-.67.17-1.01l.06-.42-.36-.27c-10.12-7.56-17.55-14.78-22.07-21.48Z"/>
      <path class="cls-1" d="m153.21,148.34c-9.35-13.71-17.77-22.46-28.15-29.24-13.42-8.77-27.15-12.1-39.7-9.61-13.54,2.66-25.47,11.96-33.59,26.17-13.84,24.27-13.6,52.17.65,76.56,15.78,27,45.87,43.06,58.07,48.7l.24.11.24-.07c.4-.11.79-.24,1.19-.37l1.74-.56-1.66-.75c-12.17-5.52-42.18-21.26-57.87-48.09-8.12-13.9-19-42.03-.59-74.28,7.81-13.69,19.24-22.64,32.19-25.19,11.96-2.36,25.07.84,37.93,9.25,10.09,6.59,18.29,15.13,27.42,28.53,4.61,6.77,11.66,14.1,20.94,21.79l.93.77.17-1.12c.05-.36.09-.71.12-1.07l.04-.38-.31-.26c-8.87-7.38-15.61-14.41-20.02-20.9Z"/>
      <path class="cls-1" d="m156,143.45c-7.43-10.81-16.28-22.01-30.68-30.79-37.02-22.58-65.82-4.35-79.25,18.12-14.71,24.61-15,54.79-.78,80.73,15.01,27.41,43.42,43.58,59.02,50.79l.2.09.21-.03c.51-.08,1.02-.18,1.54-.28l2.03-.4-1.99-.9c-15.63-7.05-44.09-22.95-59.04-50.22-13.81-25.21-13.52-54.55.79-78.48,12.91-21.63,40.61-39.18,76.18-17.5,13.96,8.51,22.61,19.47,29.88,30.04,4.53,6.59,10.81,13.58,18.68,20.77l1.02.93.11-1.3c.03-.37.05-.75.08-1.12l-.69-.11h0l.69.1.02-.34-.27-.24c-7.5-6.9-13.48-13.58-17.78-19.85Z"/>
      <path class="cls-1" d="m158.79,138.57c-9.18-13.23-18.34-23.79-33.2-32.33-17.13-9.86-34.61-12.55-50.55-7.81-13.9,4.15-26.21,13.91-34.67,27.48-15.78,25.3-16.61,57.04-2.22,84.92,14.51,28.11,42.75,44.71,58.3,52.11l.15.07h.16c.68,0,1.35,0,2.04-.05l2.67-.14-2.52-1.16c-15.71-7.23-44.23-23.57-58.77-51.73-14.01-27.13-13.19-58.05,2.18-82.69,14.03-22.52,43.99-41.02,82.22-19.03,14.45,8.3,23.38,18.62,32.34,31.55,4.35,6.29,9.79,12.77,16.17,19.24l1.12,1.14.04-1.52c.01-.41.01-.82.01-1.23v-.29s-.22-.22-.22-.22c-6.05-6.22-11.19-12.37-15.27-18.28Z"/>
      <path class="cls-1" d="m161.58,133.68c-8.22-11.75-17.74-24.05-35.71-33.87-18.36-10.03-37.12-12.57-54.27-7.34-14.8,4.51-27.91,14.65-36.92,28.56-19.83,30.57-14.89,66.07-3.65,89.11,12.75,26.14,36.58,42.59,54.32,51.78l.17.08h.11c.91.17,1.85.32,2.79.43l3.88.49-3.59-1.78c-18.25-9.05-42.72-25.39-55.63-51.87-10.97-22.46-15.79-57.08,3.56-86.88,16.41-25.3,50.07-41.48,88.26-20.6,17.5,9.57,26.8,21.59,34.82,33.08,4.1,5.87,8.58,11.56,13.32,16.89l1.24,1.4-.06-1.96c-.01-.41-.02-.81-.04-1.25l-.02-.25-.16-.19c-4.41-5.03-8.59-10.36-12.42-15.84Z"/>
      <path class="cls-1" d="m173.54,141.45l-.02-.21-.13-.17c-3.45-4.42-6.5-8.68-9.03-12.28-9.06-12.86-18.79-25.25-38.23-35.4-41.82-21.87-78.93-4.32-97.17,22.76-21.13,31.39-15.95,69.87-5.08,93.29,7.66,16.59,20.41,31.21,37.81,43.38l.2.14c2.61,1.56,5.26,2.93,7.87,4.09l.56-1.2c-20.87-12.79-35.79-28.68-44.35-47.21-10.62-22.86-15.69-60.44,4.95-91.09,17.71-26.31,53.73-43.36,94.31-22.15,18.9,9.88,28.43,22,37.31,34.6,2.58,3.67,6.05,8.52,9.97,13.49l1.41,1.78-.19-2.17c-.05-.54-.1-1.09-.16-1.63Z"/>
      <path class="cls-1" d="m80.24.13c-1.43-.12-2.9-.12-4.41.09,8.28,2.97,22.32,7.08,26.94,7.97-4.38-3.2-17.12-7.6-22.53-8.06Z"/>
    </g>
  </g>
</svg>